<svg xmlns="http://www.w3.org/2000/svg" width="2400" height="2600" viewBox="0 0 2400 2600">
  
  <!-- BAND 1: Top accent strip -->
  <rect x="0" y="0" width="2400" height="8" fill="#B8E550"/>
  
  <!-- BAND 2: Logo bar — taller -->
  <rect x="0" y="8" width="2400" height="400" fill="#0D200F"/>
  
  <!-- Logo icon — bigger -->
  <g transform="translate(900, 215) scale(1.3)">
    <rect x="-68" y="-80" width="52" height="90" rx="26" fill="#B8E550" transform="rotate(-15 -42 -35)"/>
    <rect x="16" y="-80" width="52" height="90" rx="26" fill="#B8E550" transform="rotate(15 42 -35)"/>
    <rect x="-68" y="0" width="52" height="90" rx="26" fill="#B8E550" transform="rotate(-15 -42 45)"/>
    <rect x="16" y="0" width="52" height="90" rx="26" fill="#B8E550" transform="rotate(15 42 45)"/>
  </g>
  
  <text x="1060" y="210" font-family="Inter, Helvetica Neue, Arial, sans-serif" font-weight="700" font-size="130" letter-spacing="22" fill="#B8E550">SOMA</text>
  <text x="1060" y="300" font-family="Inter, Helvetica Neue, Arial, sans-serif" font-weight="500" font-size="56" letter-spacing="20" fill="#5A7A3A">BIOLABS</text>
  
  <!-- BAND 3: Main product area -->
  <rect x="0" y="408" width="2400" height="1360" fill="#0B1A0E"/>
  
  <!-- Product Name — centered in the space -->
  <text x="1200" y="830" font-family="Inter, Helvetica Neue, Arial, sans-serif" font-weight="700" font-size="360" letter-spacing="8" fill="#F2F0EA" text-anchor="middle">BPC-157</text>
  
  <!-- Dosage -->
  <text x="1200" y="1080" font-family="Inter, Helvetica Neue, Arial, sans-serif" font-weight="600" font-size="220" fill="#B8E550" text-anchor="middle">10mg</text>
  
  <!-- Lyophilized -->
  <text x="1200" y="1220" font-family="Inter, Helvetica Neue, Arial, sans-serif" font-weight="400" font-size="90" fill="#5A7A3A" text-anchor="middle">Lyophilized Powder</text>
  
  <!-- BAND 4: Data bar -->
  <rect x="0" y="1768" width="2400" height="240" fill="#1A2A1C"/>
  <rect x="0" y="1768" width="2400" height="1" fill="#1A3A1F"/>
  <rect x="0" y="2008" width="2400" height="1" fill="#1A3A1F"/>
  
  <text x="500" y="1850" font-family="Inter, Helvetica Neue, Arial, sans-serif" font-weight="400" font-size="48" fill="#5A7A3A" text-anchor="middle">Batch</text>
  <text x="500" y="1950" font-family="Inter, Helvetica Neue, Arial, sans-serif" font-weight="600" font-size="56" letter-spacing="3" fill="#7A9A60" text-anchor="middle">SBL-260301</text>
  
  <text x="1200" y="1850" font-family="Inter, Helvetica Neue, Arial, sans-serif" font-weight="400" font-size="48" fill="#5A7A3A" text-anchor="middle">Storage</text>
  <text x="1200" y="1950" font-family="Inter, Helvetica Neue, Arial, sans-serif" font-weight="700" font-size="80" fill="#B8E550" text-anchor="middle">2-8°C</text>
  
  <text x="1900" y="1850" font-family="Inter, Helvetica Neue, Arial, sans-serif" font-weight="400" font-size="48" fill="#5A7A3A" text-anchor="middle">Purity</text>
  <text x="1900" y="1950" font-family="Inter, Helvetica Neue, Arial, sans-serif" font-weight="700" font-size="80" fill="#B8E550" text-anchor="middle">≥99%</text>
  
  <!-- Vertical dividers -->
  <rect x="800" y="1818" width="1" height="140" fill="#1A3A1F"/>
  <rect x="1600" y="1818" width="1" height="140" fill="#1A3A1F"/>
  
  <!-- BAND 5: Disclaimer — lime bg -->
  <rect x="0" y="2009" width="2400" height="260" fill="#B8E550"/>
  
  <text x="1200" y="2130" font-family="Inter, Helvetica Neue, Arial, sans-serif" font-weight="800" font-size="76" letter-spacing="6" fill="#0B1A0E" text-anchor="middle">FOR RESEARCH USE ONLY</text>
  <text x="1200" y="2215" font-family="Inter, Helvetica Neue, Arial, sans-serif" font-weight="700" font-size="46" fill="#3A5A20" text-anchor="middle">Not intended for human or veterinary use</text>
  
  <!-- BAND 6: Footer -->
  <rect x="0" y="2269" width="2400" height="331" fill="#0B1A0E"/>
  
  <text x="1200" y="2390" font-family="Inter, Helvetica Neue, Arial, sans-serif" font-weight="600" font-size="52" letter-spacing="5" fill="#3A5A20" text-anchor="middle">somabiolabs.com</text>
  
  <!-- Social icons row — bigger -->
  <!-- IG icon -->
  <g transform="translate(990, 2415)">
    <rect x="0" y="0" width="52" height="52" rx="12" fill="none" stroke="#5A7A3A" stroke-width="3.5"/>
    <circle cx="26" cy="26" r="13" fill="none" stroke="#5A7A3A" stroke-width="3.5"/>
    <circle cx="40" cy="12" r="3.5" fill="#5A7A3A"/>
  </g>
  
  <!-- X icon -->
  <g transform="translate(1170, 2417)">
    <path d="M0 0L8.7 11.7L0.3 21H2.7L9.9 13.2L15.75 21H22.5L13.35 8.55L21.3 0H18.9L12.15 7.05L6.75 0H0ZM3.75 1.5H6L18.75 19.5H16.5L3.75 1.5Z" fill="#5A7A3A" transform="scale(2.3)"/>
  </g>
  
  <!-- TikTok icon -->
  <g transform="translate(1335, 2415)">
    <path d="M16 0v20a6.5 6.5 0 1 1-4.5-6.2V9.2A11 11 0 1 0 22 20V10a9 9 0 0 0 5.5 1.8V7.2A5.5 5.5 0 0 1 22 1.8V0H16z" fill="#5A7A3A" transform="scale(1.8)"/>
  </g>
  
  <text x="1200" y="2515" font-family="Inter, Helvetica Neue, Arial, sans-serif" font-weight="700" font-size="44" letter-spacing="3" fill="#5A7A3A" text-anchor="middle">@somabiolabs</text>
  
  <text x="1200" y="2570" font-family="Inter, Helvetica Neue, Arial, sans-serif" font-weight="500" font-size="32" letter-spacing="2" fill="#3A5A20" text-anchor="middle">Based in Spain</text>
</svg>